<svg width="35" height="35" viewBox="0 0 35 35" fill="none" xmlns="http://www.w3.org/2000/svg">
<circle cx="17.5" cy="13.1249" r="2.31667" stroke="#382E66" stroke-width="1.2" stroke-linecap="round"/>
<path d="M22.7854 11.9666C23.0926 11.4345 23.5986 11.0462 24.1921 10.8872C24.7856 10.7282 25.4179 10.8114 25.95 11.1186C26.4821 11.4258 26.8704 11.9318 27.0294 12.5253C27.1884 13.1188 27.1052 13.7511 26.798 14.2833C26.4908 14.8154 25.9847 15.2036 25.3913 15.3626C24.7978 15.5217 24.1654 15.4384 23.6333 15.1312C23.1012 14.824 22.713 14.318 22.5539 13.7245C22.3949 13.131 22.4782 12.4987 22.7854 11.9666L22.7854 11.9666Z" stroke="#382E66" stroke-width="1.2"/>
<path d="M8.20206 11.9666C8.50927 11.4345 9.01527 11.0462 9.60876 10.8872C10.2022 10.7282 10.8346 10.8114 11.3667 11.1186C11.8988 11.4258 12.2871 11.9318 12.4461 12.5253C12.6051 13.1188 12.5219 13.7511 12.2146 14.2833C11.9074 14.8154 11.4014 15.2036 10.808 15.3626C10.2145 15.5217 9.58212 15.4384 9.05002 15.1312C8.51792 14.824 8.12965 14.318 7.97063 13.7245C7.8116 13.131 7.89485 12.4987 8.20206 11.9666L8.20206 11.9666Z" stroke="#382E66" stroke-width="1.2"/>
<path d="M29.7909 23.0711L29.2001 23.176V23.176L29.7909 23.0711ZM20.5625 19.2288L20.2137 18.7406L19.5749 19.197L20.183 19.6936L20.5625 19.2288ZM22.5121 23.0696L23.105 22.9774V22.9774L22.5121 23.0696ZM28.8958 23.4626H21.6042V24.6626H28.8958V23.4626ZM29.2001 23.176C29.2138 23.2532 29.1924 23.3135 29.1467 23.3628C29.0966 23.4168 29.0097 23.4626 28.8958 23.4626V24.6626C29.7577 24.6626 30.5541 23.9378 30.3816 22.9663L29.2001 23.176ZM24.0625 18.8292C26.0456 18.8292 27.235 19.5513 27.9742 20.4158C28.7337 21.3042 29.0617 22.3964 29.2001 23.176L30.3816 22.9663C30.2245 22.0811 29.8408 20.7524 28.8863 19.636C27.9114 18.4958 26.3844 17.6292 24.0625 17.6292V18.8292ZM20.9113 19.717C21.6324 19.2018 22.6386 18.8292 24.0625 18.8292V17.6292C22.4158 17.6292 21.1596 18.0648 20.2137 18.7406L20.9113 19.717ZM20.183 19.6936C21.3218 20.6233 21.7592 22.1323 21.9193 23.1618L23.105 22.9774C22.932 21.8646 22.4333 19.9817 20.942 18.764L20.183 19.6936ZM21.9193 23.1618C21.9319 23.243 21.9081 23.3083 21.8591 23.3607C21.8063 23.417 21.7178 23.4626 21.6042 23.4626V24.6626C22.4691 24.6626 23.2546 23.9396 23.105 22.9774L21.9193 23.1618Z" fill="#382E66"/>
<path d="M14.4375 19.2288L14.8169 19.6935L15.4251 19.197L14.7863 18.7406L14.4375 19.2288ZM5.20911 23.0711L4.61834 22.9663L5.20911 23.0711ZM12.4878 23.0696L13.0807 23.1618L12.4878 23.0696ZM10.9375 18.8292C12.3614 18.8292 13.3676 19.2018 14.0887 19.717L14.7863 18.7406C13.8404 18.0648 12.5842 17.6292 10.9375 17.6292V18.8292ZM5.79987 23.176C5.93826 22.3964 6.26626 21.3042 7.02581 20.4158C7.76501 19.5513 8.95444 18.8292 10.9375 18.8292V17.6292C8.61565 17.6292 7.08863 18.4958 6.11374 19.636C5.15921 20.7524 4.77548 22.081 4.61834 22.9663L5.79987 23.176ZM6.1042 23.4626C5.99029 23.4626 5.90338 23.4168 5.85331 23.3628C5.80762 23.3135 5.78616 23.2532 5.79987 23.176L4.61834 22.9663C4.44589 23.9378 5.24227 24.6626 6.1042 24.6626V23.4626ZM13.3958 23.4626H6.1042V24.6626H13.3958V23.4626ZM13.3958 23.4626C13.2822 23.4626 13.1936 23.417 13.1409 23.3607C13.0918 23.3083 13.0681 23.243 13.0807 23.1618L11.895 22.9774C11.7453 23.9396 12.5308 24.6626 13.3958 24.6626V23.4626ZM13.0807 23.1618C13.2408 22.1323 13.6782 20.6233 14.8169 19.6935L14.058 18.764C12.5666 19.9817 12.068 21.8646 11.895 22.9774L13.0807 23.1618Z" fill="#382E66"/>
<path d="M17.5 18.2292C21.2657 18.2292 22.2532 21.4044 22.5121 23.0696C22.597 23.6153 22.1564 24.0626 21.6041 24.0626H13.3958C12.8435 24.0626 12.403 23.6153 12.4878 23.0696C12.7468 21.4044 13.7343 18.2292 17.5 18.2292Z" stroke="#382E66" stroke-width="1.2" stroke-linecap="round"/>
<path d="M26.9792 31.3542H29.8542C30.6826 31.3542 31.3542 30.6827 31.3542 29.8542V26.9792" stroke="#382E66" stroke-width="1.2" stroke-linecap="round"/>
<path d="M26.9792 3.64575H29.8542C30.6826 3.64575 31.3542 4.31732 31.3542 5.14575V8.02075" stroke="#382E66" stroke-width="1.2" stroke-linecap="round"/>
<path d="M8.02081 31.3542H5.14581C4.31739 31.3542 3.64581 30.6827 3.64581 29.8542V26.9792" stroke="#382E66" stroke-width="1.2" stroke-linecap="round"/>
<path d="M8.02081 3.64575H5.14581C4.31739 3.64575 3.64581 4.31732 3.64581 5.14575V8.02075" stroke="#382E66" stroke-width="1.2" stroke-linecap="round"/>
</svg>
