<svg width="35" height="35" viewBox="0 0 35 35" fill="none" xmlns="http://www.w3.org/2000/svg">
<path d="M26.25 4.37501V4.37501C27.5306 4.37501 28.1709 4.37501 28.6817 4.56729C29.4903 4.87161 30.1284 5.50972 30.4327 6.31826C30.625 6.82914 30.625 7.46943 30.625 8.75001L30.625 12.125C30.625 12.5964 30.625 12.8321 30.4786 12.9786C30.3321 13.125 30.0964 13.125 29.625 13.125L21.875 13.125M26.25 4.37501V4.37501C24.9694 4.37501 24.3291 4.37501 23.8183 4.56729C23.0097 4.87161 22.3716 5.50972 22.0673 6.31826C21.875 6.82914 21.875 7.46943 21.875 8.75001L21.875 13.125M26.25 4.37501L8.375 4.37501C6.48938 4.37501 5.54657 4.37501 4.96079 4.9608C4.375 5.54658 4.375 6.48939 4.375 8.37501L4.375 30.625L8.75 29.1667L13.125 30.625L17.5 29.1667L21.875 30.625L21.875 13.125" stroke="#382E66" stroke-width="1.5"/>
<path d="M10.2083 10.2083L16.0416 10.2083" stroke="#382E66" stroke-width="1.5" stroke-linecap="round"/>
<path d="M11.6667 16.0417H10.2084" stroke="#382E66" stroke-width="1.5" stroke-linecap="round"/>
<path d="M10.2083 21.875L14.5833 21.875" stroke="#382E66" stroke-width="1.5" stroke-linecap="round"/>
</svg>
