<svg width="35" height="35" viewBox="0 0 35 35" fill="none" xmlns="http://www.w3.org/2000/svg">
<path d="M12.3958 18.2292L22.6041 18.2292" stroke="white" stroke-width="1.5" stroke-linecap="round"/>
<path d="M12.3958 22.6042L18.2291 22.6042" stroke="white" stroke-width="1.5" stroke-linecap="round"/>
<path d="M8.02081 7.50425C8.02081 6.66417 8.02081 6.24413 8.1843 5.92326C8.32811 5.64102 8.55758 5.41155 8.83983 5.26774C9.16069 5.10425 9.58073 5.10425 10.4208 5.10425H18.6934C19.0603 5.10425 19.2437 5.10425 19.4163 5.14569C19.5694 5.18244 19.7157 5.24304 19.8499 5.32529C20.0013 5.41805 20.131 5.54776 20.3904 5.80719L26.2762 11.693C26.5356 11.9524 26.6653 12.0821 26.7581 12.2335C26.8403 12.3677 26.901 12.514 26.9377 12.6671C26.9791 12.8397 26.9791 13.0231 26.9791 13.39V27.4959C26.9791 28.336 26.9791 28.756 26.8157 29.0769C26.6718 29.3591 26.4424 29.5886 26.1601 29.7324C25.8393 29.8959 25.4192 29.8959 24.5791 29.8959H10.4208C9.58073 29.8959 9.16069 29.8959 8.83983 29.7324C8.55758 29.5886 8.32811 29.3591 8.1843 29.0769C8.02081 28.756 8.02081 28.336 8.02081 27.4959V7.50425Z" stroke="white" stroke-width="1.5"/>
<path d="M18.2292 5.10425V11.4542C18.2292 12.2943 18.2292 12.7144 18.3927 13.0352C18.5365 13.3175 18.766 13.5469 19.0482 13.6908C19.3691 13.8542 19.7891 13.8542 20.6292 13.8542H26.9792" stroke="white" stroke-width="1.5"/>
</svg>
