<svg width="35" height="35" viewBox="0 0 35 35" fill="none" xmlns="http://www.w3.org/2000/svg">
<path d="M5.83334 13.3236C5.83334 12.5061 5.83334 12.0974 5.98558 11.7298C6.13783 11.3623 6.42686 11.0732 7.00492 10.4952L9.03677 8.46332C9.61483 7.88526 9.90386 7.59623 10.2714 7.44399C10.6389 7.29175 11.0477 7.29175 11.8652 7.29175H23.1348C23.9523 7.29175 24.3611 7.29175 24.7286 7.44399C25.0962 7.59623 25.3852 7.88526 25.9632 8.46332L27.9951 10.4952C28.5732 11.0732 28.8622 11.3623 29.0144 11.7298C29.1667 12.0974 29.1667 12.5061 29.1667 13.3236V25.1667C29.1667 27.0524 29.1667 27.9952 28.5809 28.581C27.9951 29.1667 27.0523 29.1667 25.1667 29.1667H9.83335C7.94773 29.1667 7.00492 29.1667 6.41913 28.581C5.83334 27.9952 5.83334 27.0524 5.83334 25.1667V13.3236Z" stroke="white" stroke-width="1.5"/>
<path d="M21.6317 14.5833L13.3678 14.5833C13.0241 14.5833 12.8522 14.5833 12.7454 14.69C12.6386 14.7968 12.6386 14.9687 12.6386 15.3124L12.6386 19.9305C12.6386 21.0458 12.6386 21.6035 12.7829 21.9032C13.1049 22.5723 13.8782 22.8927 14.579 22.6472C14.893 22.5373 15.2873 22.1429 16.076 21.3543C16.4412 20.989 16.6239 20.8063 16.8181 20.7037C17.2446 20.4782 17.755 20.4782 18.1814 20.7037C18.3756 20.8063 18.5583 20.989 18.9235 21.3543C19.7122 22.1429 20.1065 22.5373 20.4205 22.6472C21.1213 22.8927 21.8946 22.5723 22.2166 21.9032C22.3609 21.6035 22.3609 21.0458 22.3609 19.9305V15.3124C22.3609 14.9687 22.3609 14.7968 22.2541 14.69C22.1473 14.5833 21.9754 14.5833 21.6317 14.5833Z" stroke="white" stroke-width="1.5" stroke-linecap="round"/>
<path d="M5.83334 14.5833H29.1667V25.1666C29.1667 27.0522 29.1667 27.995 28.5809 28.5808C27.9951 29.1666 27.0523 29.1666 25.1667 29.1666H9.83335C7.94773 29.1666 7.00492 29.1666 6.41913 28.5808C5.83334 27.995 5.83334 27.0522 5.83334 25.1666V14.5833Z" stroke="white" stroke-width="1.5"/>
</svg>
