<svg width="17" height="19" viewBox="0 0 17 19" fill="none" xmlns="http://www.w3.org/2000/svg">
<path d="M14.8995 1.75736C12.5563 -0.585786 8.75736 -0.585786 6.41421 1.75736L1.81802 6.35355C1.62276 6.54882 1.62276 6.8654 1.81802 7.06066C2.01328 7.25592 2.32986 7.25592 2.52513 7.06066L7.12132 2.46447C9.07394 0.511844 12.2398 0.511844 14.1924 2.46447C16.145 4.41709 16.145 7.58291 14.1924 9.53553L7.47487 16.253C6.10804 17.6199 3.89196 17.6199 2.52513 16.253C1.15829 14.8862 1.15829 12.6701 2.52513 11.3033L9.24264 4.58579C10.0237 3.80474 11.29 3.80474 12.0711 4.58579C12.8521 5.36683 12.8521 6.63316 12.0711 7.41421L6.06066 13.4246C5.8654 13.6199 5.8654 13.9365 6.06066 14.1317C6.25592 14.327 6.57251 14.327 6.76777 14.1317L12.7782 8.12132C13.9497 6.94975 13.9497 5.05025 12.7782 3.87868C11.6066 2.70711 9.70711 2.70711 8.53553 3.87868L1.81802 10.5962C0.0606604 12.3536 0.06066 15.2028 1.81802 16.9602C3.57538 18.7175 6.42462 18.7175 8.18198 16.9602L14.8995 10.2426C17.2426 7.89949 17.2426 4.1005 14.8995 1.75736Z" fill="#007bff"/>
</svg>
