<svg width="24" height="24" viewBox="0 0 24 24" fill="none" xmlns="http://www.w3.org/2000/svg">
<path d="M14.0721 1.31941L16.0016 5.41912C16.1654 5.76428 16.4072 6.06278 16.7063 6.2889C17.0054 6.51502 17.3527 6.66198 17.7185 6.7171L22.0485 7.36609C22.4696 7.42979 22.8652 7.61506 23.1905 7.90092C23.5157 8.18677 23.7577 8.56179 23.8889 8.98352C24.0201 9.40524 24.0354 9.85683 23.933 10.2871C23.8306 10.7174 23.6147 11.1093 23.3095 11.4183L20.1797 14.5841C19.9068 14.8574 19.7039 15.1977 19.5898 15.5738C19.4757 15.9498 19.4539 16.3497 19.5264 16.7369L20.2557 21.2323C20.3259 21.6674 20.2783 22.1144 20.1182 22.5229C19.9582 22.9314 19.692 23.2854 19.3497 23.5451C19.0073 23.8048 18.6022 23.96 18.1799 23.9933C17.7576 24.0265 17.3347 23.9365 16.9588 23.7333L13.0846 21.5805C12.7563 21.4016 12.3914 21.3082 12.021 21.3082C11.6506 21.3082 11.2857 21.4016 10.9575 21.5805L7.08327 23.7016C6.70733 23.9048 6.28448 23.9948 5.86216 23.9616C5.43985 23.9284 5.03478 23.7732 4.6924 23.5134C4.35002 23.2537 4.08389 22.8997 3.92385 22.4912C3.76381 22.0827 3.7162 21.6358 3.78636 21.2006L4.51563 16.7369C4.58028 16.357 4.55453 15.9665 4.44063 15.5995C4.32673 15.2324 4.12816 14.9001 3.86232 14.6316L0.732538 11.4658C0.413701 11.1589 0.185611 10.7636 0.0750993 10.3263C-0.0354126 9.88893 -0.02375 9.42781 0.108716 8.99715C0.241182 8.56649 0.488941 8.18421 0.822848 7.89526C1.15675 7.60631 1.56292 7.42272 1.99357 7.36609L6.32361 6.7171C6.68934 6.66198 7.03672 6.51502 7.33581 6.2889C7.63489 6.06278 7.87672 5.76428 8.04044 5.41912L9.96996 1.31941C10.1607 0.922873 10.4535 0.589444 10.8158 0.356428C11.178 0.123412 11.5953 0 12.021 0C12.4468 0 12.8641 0.123412 13.2263 0.356428C13.5885 0.589444 13.8814 0.922873 14.0721 1.31941Z" fill="#757B84"/>
</svg>
