<svg width="24" height="24" viewBox="0 0 24 24" fill="none" xmlns="http://www.w3.org/2000/svg">
<path d="M23.3543 10.44L13.5643 0.65C13.1443 0.23 12.5893 0 11.9993 0C11.4093 0 10.8543 0.23 10.4343 0.645L0.649345 10.435C0.644345 10.44 0.644345 10.44 0.639345 10.445C-0.215655 11.305 -0.215655 12.705 0.644345 13.565C1.03934 13.96 1.55434 14.185 2.10934 14.21C2.13434 14.21 2.15434 14.215 2.17934 14.215H2.56934V21.42C2.56934 22.845 3.72935 24.005 5.15435 24.005H8.98434C9.37434 24.005 9.68934 23.69 9.68934 23.3V17.65C9.68934 17 10.2193 16.47 10.8693 16.47H13.1293C13.7793 16.47 14.3093 17 14.3093 17.65V23.3C14.3093 23.69 14.6243 24.005 15.0143 24.005H18.8443C20.2693 24.005 21.4293 22.845 21.4293 21.42V14.21H21.7893C22.3793 14.21 22.9343 13.98 23.3543 13.565C24.2143 12.705 24.2143 11.3 23.3543 10.44Z" fill="#757B84"/>
</svg>
