<svg width="24" height="24" viewBox="0 0 24 24" fill="none" xmlns="http://www.w3.org/2000/svg">
<path d="M16.3456 4.82844L19.1741 7.65686C19.3616 7.8444 19.467 8.09875 19.467 8.36397C19.467 8.62919 19.3616 8.88354 19.1741 9.07108L18.1276 10.1176C18.09 10.1551 18.0392 10.1762 17.9861 10.1762C17.9331 10.1762 17.8822 10.1551 17.8447 10.1176L13.8778 6.15073C13.8403 6.11322 13.8193 6.06235 13.8193 6.0093C13.8193 5.95626 13.8403 5.90539 13.8778 5.86788L14.9244 4.82136C15.1119 4.63383 15.3663 4.52847 15.6315 4.52847C15.8967 4.52847 16.151 4.63383 16.3386 4.82136L16.3456 4.82844Z" fill="#000D26"/>
<path d="M16.77 11.1797L12.77 7.17971C12.7522 7.16031 12.7306 7.14483 12.7065 7.13423C12.6824 7.12364 12.6563 7.11816 12.63 7.11816C12.6037 7.11816 12.5776 7.12364 12.5535 7.13423C12.5294 7.14483 12.5078 7.16031 12.49 7.17971L10.91 8.83971L4.81998 14.9297C4.7273 15.0232 4.65398 15.134 4.60421 15.2558C4.55445 15.3776 4.52922 15.5081 4.52998 15.6397V18.4697C4.52998 18.7349 4.63534 18.9893 4.82288 19.1768C5.01041 19.3644 5.26477 19.4697 5.52998 19.4697H8.35998C8.49229 19.4692 8.62318 19.4424 8.74505 19.3909C8.86693 19.3394 8.97737 19.2642 9.06998 19.1697L15.15 13.0797L16.77 11.4597C16.7894 11.4419 16.8049 11.4203 16.8155 11.3962C16.8261 11.3721 16.8315 11.346 16.8315 11.3197C16.8315 11.2934 16.8261 11.2673 16.8155 11.2432C16.8049 11.2191 16.7894 11.1975 16.77 11.1797Z" fill="#000D26"/>
<path d="M17.24 11.0615L13.24 7.06155C13.2222 7.04215 13.2006 7.02666 13.1765 7.01607C13.1524 7.00547 13.1263 7 13.1 7C13.0737 7 13.0477 7.00547 13.0236 7.01607C12.9995 7.02666 12.9778 7.04215 12.96 7.06155L11.38 8.72155L5.29002 14.8115C5.19734 14.905 5.12401 15.0158 5.07425 15.1376C5.02448 15.2595 4.99926 15.3899 5.00002 15.5215V18.3515C5.00002 18.6168 5.10537 18.8711 5.29291 19.0587C5.48045 19.2462 5.7348 19.3515 6.00002 19.3515H8.83002C8.96232 19.351 9.09321 19.3242 9.21508 19.2727C9.33696 19.2212 9.4474 19.146 9.54002 19.0515L15.62 12.9615L17.24 11.3415C17.2594 11.3237 17.2749 11.3021 17.2855 11.278C17.2961 11.2539 17.3016 11.2279 17.3016 11.2015C17.3016 11.1752 17.2961 11.1492 17.2855 11.1251C17.2749 11.101 17.2594 11.0793 17.24 11.0615Z" fill="#000D26"/>
</svg>
