<svg width="24" height="24" viewBox="0 0 24 24" fill="none" xmlns="http://www.w3.org/2000/svg">
<path d="M10.03 9.94002C11.5432 9.94002 12.77 8.71328 12.77 7.20002C12.77 5.68676 11.5432 4.46002 10.03 4.46002C8.51672 4.46002 7.28998 5.68676 7.28998 7.20002C7.28998 8.71328 8.51672 9.94002 10.03 9.94002Z" fill="#4779CC"/>
<path d="M15.11 12.69H4.93998C3.96244 12.69 3.16998 13.4825 3.16998 14.46V17.78C3.16998 18.7575 3.96244 19.55 4.93998 19.55H15.11C16.0875 19.55 16.88 18.7575 16.88 17.78V14.46C16.88 13.4825 16.0875 12.69 15.11 12.69Z" fill="#4779CC"/>
<path d="M16.17 11.06C17.385 11.06 18.37 10.075 18.37 8.85997C18.37 7.64495 17.385 6.65997 16.17 6.65997C14.9549 6.65997 13.97 7.64495 13.97 8.85997C13.97 10.075 14.9549 11.06 16.17 11.06Z" fill="#4779CC"/>
<path d="M21 15.46V18.12C20.9974 18.4958 20.8469 18.8554 20.5812 19.1212C20.3155 19.3869 19.9558 19.5374 19.58 19.54H17.73C17.6876 19.54 17.6469 19.5231 17.6169 19.4931C17.5869 19.4631 17.57 19.4224 17.57 19.38C17.5716 19.3495 17.5819 19.3202 17.5996 19.2954C17.6173 19.2706 17.6417 19.2514 17.67 19.24C17.9099 19.077 18.1064 18.8579 18.2424 18.6017C18.3783 18.3455 18.4496 18.06 18.45 17.77V14.34C18.4486 14.3002 18.4554 14.2606 18.47 14.2235C18.4846 14.1865 18.5066 14.1529 18.5348 14.1247C18.5629 14.0966 18.5965 14.0745 18.6336 14.06C18.6706 14.0454 18.7102 14.0386 18.75 14.04H19.58C19.9558 14.0426 20.3155 14.193 20.5812 14.4588C20.8469 14.7245 20.9974 15.0842 21 15.46Z" fill="#4779CC"/>
</svg>
