<svg width="24" height="24" viewBox="0 0 24 24" fill="none" xmlns="http://www.w3.org/2000/svg">
<path d="M18.6667 0H5.33333C3.91885 0 2.56229 0.561903 1.5621 1.5621C0.561903 2.56229 0 3.91885 0 5.33333V18.6667C0 20.0812 0.561903 21.4377 1.5621 22.4379C2.56229 23.4381 3.91885 24 5.33333 24H18.6667C20.0812 24 21.4377 23.4381 22.4379 22.4379C23.4381 21.4377 24 20.0812 24 18.6667V5.33333C24 3.91885 23.4381 2.56229 22.4379 1.5621C21.4377 0.561903 20.0812 0 18.6667 0ZM17.4267 8L9.70667 15.7333H12.9467C13.2119 15.7333 13.4662 15.8387 13.6538 16.0262C13.8413 16.2138 13.9467 16.4681 13.9467 16.7333C13.9467 16.9986 13.8413 17.2529 13.6538 17.4404C13.4662 17.628 13.2119 17.7333 12.9467 17.7333H7.29333C7.16029 17.7337 7.02862 17.7065 6.90667 17.6533C6.66097 17.5481 6.46521 17.3524 6.36 17.1067C6.34095 16.983 6.34095 16.857 6.36 16.7333V11.0533C6.36 10.7881 6.46536 10.5338 6.65289 10.3462C6.84043 10.1587 7.09478 10.0533 7.36 10.0533C7.62522 10.0533 7.87957 10.1587 8.06711 10.3462C8.25464 10.5338 8.36 10.7881 8.36 11.0533V14.3067L16 6.57333C16.1892 6.38415 16.4458 6.27786 16.7133 6.27786C16.9809 6.27786 17.2375 6.38415 17.4267 6.57333C17.6159 6.76252 17.7221 7.01911 17.7221 7.28667C17.7221 7.55422 17.6159 7.81081 17.4267 8Z" fill="#4779CC"/>
</svg>
