<svg width="14" height="18" viewBox="0 0 14 18" fill="none" xmlns="http://www.w3.org/2000/svg">
<path d="M13.18 7.08002C13.18 5.44099 12.5289 3.86908 11.3699 2.7101C10.211 1.55113 8.63905 0.900024 7.00001 0.900024C5.36097 0.900024 3.78907 1.55113 2.63009 2.7101C1.47112 3.86908 0.820011 5.44099 0.820011 7.08002C0.820011 7.08002 0.470011 9.92003 4.51001 15.79C4.78367 16.2026 5.15516 16.541 5.59137 16.7751C6.02759 17.0092 6.51495 17.1317 7.01001 17.1317C7.50507 17.1317 7.99244 17.0092 8.42865 16.7751C8.86486 16.541 9.23636 16.2026 9.51001 15.79C13.53 9.92003 13.18 7.08002 13.18 7.08002ZM7.00001 9.08002C6.60445 9.08002 6.21777 8.96273 5.88887 8.74296C5.55997 8.5232 5.30363 8.21084 5.15225 7.84539C5.00088 7.47994 4.96127 7.07781 5.03844 6.68984C5.11561 6.30188 5.30609 5.94552 5.5858 5.66581C5.8655 5.38611 6.22187 5.19562 6.60983 5.11845C6.99779 5.04128 7.39993 5.08089 7.76538 5.23226C8.13083 5.38364 8.44319 5.63999 8.66295 5.96888C8.88271 6.29778 9.00001 6.68446 9.00001 7.08002C8.99737 7.60872 8.78549 8.11487 8.4107 8.48778C8.03591 8.86069 7.52872 9.07003 7.00001 9.07002V9.08002Z" fill="#757B84"/>
</svg>
