<svg width="24" height="24" viewBox="0 0 24 24" fill="none" xmlns="http://www.w3.org/2000/svg">
    <path fill-rule="evenodd" clip-rule="evenodd"
          d="M12 11.5C13.933 11.5 15.5 9.933 15.5 8C15.5 6.067 13.933 4.5 12 4.5C10.067 4.5 8.5 6.067 8.5 8C8.5 9.933 10.067 11.5 12 11.5ZM12 9.5C12.8284 9.5 13.5 8.82843 13.5 8C13.5 7.17157 12.8284 6.5 12 6.5C11.1716 6.5 10.5 7.17157 10.5 8C10.5 8.82843 11.1716 9.5 12 9.5Z"
          fill="#fff"/>
    <path fill-rule="evenodd" clip-rule="evenodd"
          d="M12 1C8.13401 1 5 4.13401 5 8C5 15.5124 8.95058 20.4805 10.916 22.3492C11.3723 22.7831 11.6005 23 12 23C12.3995 23 12.6277 22.7831 13.084 22.3492C15.0494 20.4805 19 15.5124 19 8C19 4.13401 15.866 1 12 1ZM7 8C7 5.23858 9.23858 3 12 3C14.7614 3 17 5.23858 17 8C17 14.733 13.4583 19.341 12.3365 20.6317C12.1554 20.8401 11.8446 20.8401 11.6635 20.6317C10.5417 19.341 7 14.733 7 8ZM12 11.5C13.933 11.5 15.5 9.933 15.5 8C15.5 6.067 13.933 4.5 12 4.5C10.067 4.5 8.5 6.067 8.5 8C8.5 9.933 10.067 11.5 12 11.5ZM12 9.5C12.8284 9.5 13.5 8.82843 13.5 8C13.5 7.17157 12.8284 6.5 12 6.5C11.1716 6.5 10.5 7.17157 10.5 8C10.5 8.82843 11.1716 9.5 12 9.5Z"
          fill="#fff"/>
</svg>
