<svg width="16" height="19" viewBox="0 0 16 19" fill="none" xmlns="http://www.w3.org/2000/svg">
<path d="M15 4.65999L8.92 1.14999C8.64062 0.987508 8.32319 0.901917 8 0.901917C7.67681 0.901917 7.35938 0.987508 7.08 1.14999L1 4.65999C0.696264 4.83535 0.443982 5.0875 0.268463 5.39115C0.0929441 5.6948 0.00036088 6.03926 1.13787e-06 6.38999C-0.000989923 8.84846 0.645428 11.2638 1.87423 13.3932C3.10304 15.5225 4.8709 17.2908 7 18.52L7.5 18.81C7.65202 18.8978 7.82446 18.944 8 18.944C8.17554 18.944 8.34798 18.8978 8.5 18.81L9 18.52C11.1291 17.2908 12.897 15.5225 14.1258 13.3932C15.3546 11.2638 16.001 8.84846 16 6.38999C15.9996 6.03926 15.9071 5.6948 15.7315 5.39115C15.556 5.0875 15.3037 4.83535 15 4.65999ZM12.53 7.52999L7.72 12.34C7.57828 12.4789 7.38841 12.5577 7.19 12.56C6.992 12.5557 6.80285 12.4772 6.66 12.34L4.47 10.15C4.32955 10.0094 4.25066 9.81874 4.25066 9.61999C4.25066 9.42124 4.32955 9.23061 4.47 9.08999C4.53895 9.01923 4.62136 8.96299 4.71239 8.9246C4.80341 8.8862 4.90121 8.86642 5 8.86642C5.09879 8.86642 5.19659 8.8862 5.28761 8.9246C5.37864 8.96299 5.46105 9.01923 5.53 9.08999L7.19 10.75L11.47 6.46999C11.6122 6.33751 11.8002 6.26538 11.9945 6.26881C12.1888 6.27224 12.3742 6.35095 12.5116 6.48837C12.649 6.62578 12.7277 6.81116 12.7312 7.00547C12.7346 7.19977 12.6625 7.38781 12.53 7.52999Z" fill="#4779CC"/>
</svg>
