<svg width="32" height="32" viewBox="0 0 32 32" fill="none" xmlns="http://www.w3.org/2000/svg">
<rect width="32" height="32" rx="4" fill="#EDE9FA"/>
<path d="M14.2374 17.3701C15.9599 17.3701 17.3561 15.7749 17.3561 13.8071C17.3561 11.8393 15.9599 10.2441 14.2374 10.2441C12.515 10.2441 11.1187 11.8393 11.1187 13.8071C11.1187 15.7749 12.515 17.3701 14.2374 17.3701Z" fill="#874CD1"/>
<path d="M20.4748 22.6396C20.4748 24.8041 17.2995 24.0647 14.2374 24.0647C11.1753 24.0647 8 24.8041 8 22.6396C8 20.475 11.1753 18.7203 14.2374 18.7203C17.2995 18.7203 20.4748 20.475 20.4748 22.6396Z" fill="#874CD1"/>
<path d="M20 10.1612C20 11.1278 20.5257 11.9088 21.3886 12.2444L21.3886 15.8563C20.7673 16.2047 20.1914 16.9138 20.1915 17.8174C20.1915 17.8245 20.1969 17.8317 20.1969 17.8389C20.1969 18.9236 20.8351 19.7255 21.8996 19.984C22.0481 20.0203 22.1988 19.9328 22.2362 19.7886C22.2434 19.7607 22.246 19.7317 22.2439 19.703L22.1472 18.4931C22.3995 18.3608 22.7033 18.3607 22.9557 18.4927L22.8516 19.7096C22.839 19.8572 22.9519 19.9868 23.1039 19.9991C23.1375 20.0018 23.1713 19.9985 23.2037 19.9894C24.185 19.7133 24.7901 18.8932 24.8 17.8469C24.8002 16.8805 24.2878 16.0994 23.3904 15.7638L23.3904 12.1355C24.1497 11.7275 24.617 10.9482 24.617 10.145C24.617 9.05149 23.9785 8.25519 22.9004 8.01484C22.8156 7.99576 22.7265 8.01745 22.661 8.0731C22.5946 8.12888 22.5598 8.21212 22.5673 8.29703L22.6648 9.50697C22.4126 9.63921 22.1089 9.63931 21.8567 9.5073L21.9613 8.29043C21.9739 8.14283 21.861 8.01323 21.709 8.00092C21.6755 7.99821 21.6416 8.00149 21.6093 8.01061C20.6232 8.28805 20 9.1121 20 10.1612Z" fill="#874CD1"/>
</svg>
