<svg width="32" height="32" viewBox="0 0 32 32" fill="none" xmlns="http://www.w3.org/2000/svg">
<rect width="32" height="32" rx="4" fill="#E9FAEB"/>
<path d="M22.2245 12.8357C22.0584 12.8357 21.9235 12.9706 21.9235 13.1366C21.9235 13.3027 22.0584 13.4376 22.2245 13.4376C22.3906 13.4376 22.5255 13.3027 22.5255 13.1366C22.5255 12.9706 22.3906 12.8357 22.2245 12.8357Z" fill="#0DA06A"/>
<path d="M22.2249 8C19.4036 8 17.0883 10.3153 17.0883 13.1367C17.0883 15.958 19.4036 18.2734 22.2249 18.2734C25.0463 18.2734 27.3616 15.958 27.3616 13.1367C27.3616 10.3153 25.0463 8 22.2249 8ZM22.2249 16.4474C20.3994 16.4474 18.9142 14.9622 18.9142 13.1367C18.9142 11.3111 20.3994 9.82593 22.2249 9.82593C24.0505 9.82593 25.5357 11.3111 25.5357 13.1367C25.5357 14.9622 24.0505 16.4474 22.2249 16.4474Z" fill="#0DA06A"/>
<path d="M23.6391 11.975L24.1387 11.2225C23.8076 10.8914 23.3923 10.6446 22.9288 10.5242L22.5255 11.3308H21.9235L21.5202 10.5242C21.0567 10.6446 20.6414 10.8914 20.3103 11.2225L20.81 11.975L20.509 12.4926L19.6061 12.4384C19.5458 12.6612 19.5157 12.8959 19.5157 13.1367C19.5157 13.3775 19.5458 13.6122 19.606 13.835L20.5089 13.7808L20.8099 14.2984L20.3103 15.0509C20.6414 15.382 21.0567 15.6288 21.5202 15.7492L21.9235 14.9426H22.5255L22.9287 15.7492C23.3923 15.6288 23.8076 15.382 24.1387 15.0509L23.639 14.2984L23.94 13.7808L24.8429 13.835C24.9032 13.6122 24.9333 13.3775 24.9333 13.1367C24.9333 12.8959 24.9032 12.6612 24.843 12.4384L23.9401 12.4926L23.6391 11.975ZM22.2245 14.0396C21.7266 14.0396 21.3216 13.6346 21.3216 13.1367C21.3216 12.6388 21.7266 12.2338 22.2245 12.2338C22.7223 12.2338 23.1274 12.6388 23.1274 13.1367C23.1274 13.6346 22.7223 14.0396 22.2245 14.0396Z" fill="#0DA06A"/>
<path d="M11.2374 16.5701C12.9598 16.5701 14.356 14.9749 14.356 13.0071C14.356 11.0393 12.9598 9.44412 11.2374 9.44412C9.51494 9.44412 8.11865 11.0393 8.11865 13.0071C8.11865 14.9749 9.51494 16.5701 11.2374 16.5701Z" fill="#0DA06A"/>
<path d="M17.4747 21.8396C17.4747 24.0041 14.2994 23.2648 11.2373 23.2648C8.17521 23.2648 4.99988 24.0041 4.99988 21.8396C4.99988 19.675 8.17521 17.9203 11.2373 17.9203C14.2994 17.9203 17.4747 19.675 17.4747 21.8396Z" fill="#0DA06A"/>
</svg>
