<svg width="32" height="32" viewBox="0 0 32 32" fill="none" xmlns="http://www.w3.org/2000/svg">
<rect width="32" height="32" rx="4" fill="#EBF3FF"/>
<g clip-path="url(#clip0_2_558)">
<path d="M22.9498 11.2499H12.6001V9.89989C12.6001 9.7181 12.4903 9.5534 12.322 9.48411C12.1537 9.41481 11.9611 9.45351 11.8315 9.5813L9.13162 12.2812C8.95613 12.4567 8.95613 12.742 9.13162 12.9175L11.8315 15.6174C11.9611 15.7461 12.1537 15.7848 12.322 15.7155C12.4903 15.6462 12.6001 15.4815 12.6001 15.2997V13.9498H22.9498C23.1982 13.9498 23.3998 13.7482 23.3998 13.4998V11.6998C23.3998 11.4505 23.1982 11.2499 22.9498 11.2499Z" fill="#4779CC"/>
<path d="M23.2683 19.4819L20.5684 16.7811C20.4397 16.6524 20.2462 16.6137 20.0779 16.6839C19.9096 16.7541 19.7998 16.9179 19.7998 17.0996V18.4496H9.45014C9.20175 18.4496 9.00015 18.6512 9.00015 18.8996V20.6995C9.00015 20.9479 9.20175 21.1495 9.45014 21.1495H19.7998V22.4995C19.7998 22.6813 19.9096 22.846 20.0779 22.9153C20.2462 22.9855 20.4397 22.9468 20.5684 22.8181L23.2683 20.1181C23.4438 19.9427 23.4438 19.6574 23.2683 19.4819Z" fill="#4779CC"/>
</g>
<defs>
<clipPath id="clip0_2_558">
<rect width="14.4" height="14.4" fill="white" transform="translate(9 9)"/>
</clipPath>
</defs>
</svg>
