<svg width="32" height="32" viewBox="0 0 32 32" fill="none" xmlns="http://www.w3.org/2000/svg">
<rect width="32" height="32" rx="4" fill="#FFF5EB"/>
<path d="M12.2376 17.7701C13.9601 17.7701 15.3563 16.1749 15.3563 14.2071C15.3563 12.2393 13.9601 10.6441 12.2376 10.6441C10.5152 10.6441 9.11895 12.2393 9.11895 14.2071C9.11895 16.1749 10.5152 17.7701 12.2376 17.7701Z" fill="#FB7E15"/>
<path d="M18.475 23.0396C18.475 25.2042 15.2997 24.4648 12.2376 24.4648C9.17553 24.4648 6.0002 25.2042 6.0002 23.0396C6.0002 20.875 9.17553 19.1203 12.2376 19.1203C15.2997 19.1203 18.475 20.875 18.475 23.0396Z" fill="#FB7E15"/>
<path d="M25.9652 10.6208C25.9418 10.5821 25.9079 10.55 25.8669 10.5276C25.8259 10.5052 25.7793 10.4935 25.7319 10.4934H22.2182L22.8073 6.27895C22.8136 6.22255 22.7994 6.1658 22.7671 6.11783C22.7348 6.06986 22.6862 6.03347 22.6291 6.01452C22.572 5.99557 22.5098 5.99516 22.4524 6.01335C22.3951 6.03155 22.3459 6.06729 22.3129 6.11483L18.0398 13.1246C18.0148 13.1626 18.0011 13.2062 18.0002 13.2509C17.9992 13.2956 18.0109 13.3397 18.0342 13.3786C18.0575 13.4176 18.0914 13.4501 18.1326 13.4727C18.1737 13.4953 18.2206 13.5073 18.2683 13.5073H21.7295L21.2626 17.7281C21.2581 17.7843 21.2737 17.8403 21.307 17.8873C21.3404 17.9342 21.3895 17.9694 21.4466 17.9871C21.5038 18.0049 21.5656 18.0043 21.6223 17.9853C21.679 17.9664 21.7274 17.9302 21.7596 17.8826L25.962 10.8736C25.9864 10.8355 25.9995 10.792 26.0001 10.7476C26.0006 10.7032 25.9886 10.6594 25.9652 10.6208Z" fill="#FB7E15"/>
</svg>
