<svg width="16" height="19" viewBox="0 0 16 19" fill="none" xmlns="http://www.w3.org/2000/svg">
<path d="M15 4.65999L8.92 1.14999C8.64062 0.987508 8.32319 0.901917 8 0.901917C7.67681 0.901917 7.35938 0.987508 7.08 1.14999L1 4.65999C0.696264 4.83535 0.443982 5.0875 0.268463 5.39115C0.0929441 5.6948 0.00036088 6.03926 1.13787e-06 6.38999C-0.000989923 8.84846 0.645428 11.2638 1.87423 13.3932C3.10304 15.5225 4.8709 17.2908 7 18.52L7.5 18.81C7.65202 18.8978 7.82446 18.944 8 18.944C8.17554 18.944 8.34798 18.8978 8.5 18.81L9 18.52C11.1291 17.2908 12.897 15.5225 14.1258 13.3932C15.3546 11.2638 16.001 8.84846 16 6.38999C15.9996 6.03926 15.9071 5.6948 15.7315 5.39115C15.556 5.0875 15.3037 4.83535 15 4.65999ZM10.94 8.85999L10.13 9.64999C10.0602 9.71752 10.0082 9.80123 9.97857 9.89368C9.94892 9.98613 9.94254 10.0845 9.96 10.18L10.15 11.3C10.171 11.4096 10.1605 11.523 10.1196 11.6269C10.0787 11.7308 10.0092 11.8209 9.91919 11.8869C9.82914 11.9529 9.72221 11.9919 9.61084 11.9996C9.49946 12.0072 9.38821 11.9831 9.29 11.93L8.29 11.4C8.20344 11.3553 8.10743 11.3319 8.01 11.3319C7.91257 11.3319 7.81656 11.3553 7.73 11.4L6.73 11.93C6.63179 11.9831 6.52054 12.0072 6.40916 11.9996C6.29779 11.9919 6.19087 11.9529 6.10081 11.8869C6.01075 11.8209 5.94126 11.7308 5.9004 11.6269C5.85955 11.523 5.84901 11.4096 5.87 11.3L6 10.18C6.01746 10.0845 6.01108 9.98613 5.98143 9.89368C5.95177 9.80123 5.89976 9.71752 5.83 9.64999L5.02 8.85999C4.94643 8.78132 4.89538 8.68429 4.87224 8.5791C4.84909 8.4739 4.85468 8.36441 4.88844 8.26212C4.92219 8.15983 4.98286 8.06852 5.06408 7.99776C5.14529 7.927 5.24405 7.87941 5.35 7.85999L6.47 7.69999C6.58281 7.69951 6.69303 7.66615 6.78717 7.60398C6.8813 7.54182 6.95527 7.45355 7 7.34999L7.51 6.34999C7.55853 6.25077 7.63393 6.16717 7.72763 6.1087C7.82132 6.05022 7.92955 6.01922 8.04 6.01922C8.15045 6.01922 8.25868 6.05022 8.35237 6.1087C8.44607 6.16717 8.52147 6.25077 8.57 6.34999L9.08 7.34999C9.12121 7.4384 9.18405 7.51498 9.26271 7.57266C9.34136 7.63034 9.4333 7.66726 9.53 7.67999L10.65 7.83999C10.7566 7.86273 10.8551 7.9141 10.9347 7.98858C11.0143 8.06306 11.0722 8.15783 11.102 8.26271C11.1318 8.36759 11.1325 8.47861 11.1039 8.58384C11.0754 8.68908 11.0187 8.78455 10.94 8.85999Z" fill="#757B84"/>
</svg>
