<svg width="44" height="44" viewBox="0 0 44 44" fill="none" xmlns="http://www.w3.org/2000/svg">
<circle cx="22" cy="22" r="21" fill="#F1F1F1" stroke="#EEEFF5" stroke-width="2"/>
<path d="M35.795 30.2435C35.0892 29.661 34.3541 29.1149 33.5924 28.6076C31.97 27.5495 30.3251 26.5256 28.5941 25.434C28.539 25.3995 28.4764 25.3789 28.4115 25.3741C28.3467 25.3693 28.2816 25.3805 28.2221 25.4066C28.1626 25.4327 28.1104 25.473 28.07 25.5239C28.0296 25.5748 28.0022 25.6348 27.9903 25.6988C27.3211 29.2955 26.6831 32.742 26.0377 36.2167C26.0271 36.2741 26.0292 36.3331 26.044 36.3896C26.0588 36.4461 26.0859 36.4987 26.1232 36.5436C26.1605 36.5885 26.2071 36.6246 26.2599 36.6494C26.3128 36.6743 26.3704 36.6873 26.4288 36.6874H35.1413C35.3837 36.6874 35.6237 36.6395 35.8475 36.5466C36.0714 36.4537 36.2747 36.3175 36.4458 36.1458C36.6169 35.9742 36.7525 35.7704 36.8447 35.5462C36.9369 35.3221 36.9839 35.082 36.9831 34.8396C36.9831 34.1399 36.9831 33.4476 36.998 32.7575C37.0157 32.2724 36.9155 31.7903 36.7059 31.3524C36.4964 30.9146 36.1838 30.5341 35.795 30.2435Z" fill="#68768C"/>
<path d="M8.83506 30.5201C8.4201 30.86 8.14263 31.3391 8.05426 31.8682C7.99477 32.872 7.99551 33.8759 8.00443 34.8901C8.00855 35.3759 8.20444 35.8403 8.54941 36.1824C8.89437 36.5244 9.36052 36.7164 9.84631 36.7163H18.4569C18.5152 36.7163 18.5728 36.7034 18.6256 36.6787C18.6783 36.654 18.725 36.618 18.7623 36.5732C18.7996 36.5285 18.8266 36.4761 18.8414 36.4197C18.8562 36.3634 18.8585 36.3045 18.8481 36.2472C18.2078 32.7315 17.5766 29.2686 16.9364 25.7552C16.9252 25.6933 16.8995 25.635 16.8615 25.5849C16.8234 25.5348 16.774 25.4945 16.7173 25.4671C16.6607 25.4398 16.5984 25.4262 16.5355 25.4276C16.4727 25.4289 16.411 25.4451 16.3556 25.4749C13.6798 26.8899 11.1592 28.5808 8.83506 30.5201Z" fill="#68768C"/>
<path d="M23.2501 26.5315L26.3225 24.1624C26.5008 24.0234 26.6449 23.8454 26.7437 23.642C26.8424 23.4386 26.8931 23.2152 26.8921 22.9891C26.8921 21.2149 26.8854 20.7993 26.913 20.5635C26.9278 20.4446 26.9501 20.3695 26.9836 20.1843L27.8707 18.5983C28.8566 18.8778 28.7964 17.6591 29.0366 15.6686C29.1266 14.9079 29.044 14.6803 28.7748 14.5457L28.7258 14.4513C28.9154 13.6475 29.9571 11.5952 29.7147 9.7281C29.6262 9.05515 29.3469 8.42161 28.9099 7.90232C28.4728 7.38303 27.8962 6.99971 27.2483 6.79767C26.2407 4.40855 23.5505 3.98099 21.7941 4.34014C20.704 4.56322 17.9669 4.17506 16.8672 4.0033C16.8129 3.99548 16.7574 4.00162 16.7061 4.02113C16.6548 4.04065 16.6093 4.07286 16.5739 4.11481C16.5385 4.15676 16.5144 4.20705 16.5038 4.2609C16.4931 4.31475 16.4964 4.37041 16.5132 4.42265C16.6344 4.8123 16.7775 5.19487 16.9415 5.56852C16.973 5.64311 16.9769 5.72649 16.9523 5.80365C16.9278 5.88081 16.8764 5.94666 16.8076 5.98937C15.0974 7.08466 14.3048 9.81361 16.1251 14.052L15.8098 14.487C15.4336 14.6238 15.3094 14.7941 15.4127 15.6671C15.6618 17.7558 15.5942 18.8377 16.5802 18.5968L16.911 18.7641C16.972 19.3803 17.182 19.9723 17.523 20.4892C17.5785 20.5749 17.6383 20.6578 17.7022 20.7376V22.7668C17.7015 22.9921 17.7524 23.2146 17.851 23.4172C17.9496 23.6198 18.0933 23.7972 18.271 23.9357L21.6357 26.5293C21.7305 26.604 21.7934 26.7118 21.8117 26.831C21.8301 26.9502 21.8026 27.072 21.7347 27.1717L20.7501 28.6158C20.6698 28.7352 20.6224 28.8737 20.6128 29.0174C20.6031 29.161 20.6315 29.3046 20.6951 29.4337L21.2632 30.5795C21.3575 30.7709 21.3922 30.9861 21.3629 31.1974L20.6119 36.6739H24.2821L23.5282 31.1974C23.4991 30.9861 23.534 30.7708 23.6286 30.5795L24.1974 29.4337C24.2609 29.3045 24.2892 29.1608 24.2794 29.0172C24.2696 28.8736 24.222 28.7351 24.1416 28.6158L23.1571 27.1717C23.0892 27.0729 23.0611 26.9521 23.0783 26.8334C23.0956 26.7148 23.1569 26.607 23.2501 26.5315Z" fill="#68768C"/>
</svg>
