<svg width="35" height="35" viewBox="0 0 35 35" fill="none" xmlns="http://www.w3.org/2000/svg">
<path d="M17.5 30.625C20.5365 30.625 23.4791 29.5721 25.8264 27.6458C28.1737 25.7194 29.7804 23.0388 30.3728 20.0606C30.9652 17.0824 30.5066 13.9909 29.0752 11.3129C27.6438 8.63493 25.3281 6.53612 22.5227 5.37408C19.7173 4.21205 16.5958 4.0587 13.69 4.94016C10.7842 5.82162 8.27397 7.68335 6.58696 10.2081C4.89995 12.7329 4.14057 15.7646 4.4382 18.7865C4.73583 21.8084 6.07206 24.6336 8.21922 26.7808" stroke="white" stroke-width="1.5" stroke-linecap="round"/>
<path d="M23.3333 14.5833L17.4437 21.6508C16.7881 22.4375 16.4603 22.8308 16.0198 22.8508C15.5792 22.8708 15.2171 22.5087 14.493 21.7846L11.6666 18.9583" stroke="white" stroke-width="1.5" stroke-linecap="round"/>
</svg>
