<svg width="22" height="18" viewBox="0 0 22 18" fill="none" xmlns="http://www.w3.org/2000/svg">
<path d="M6.30667 6.66756C6.21884 6.66633 6.13166 6.68008 6.05068 6.70793C5.9697 6.73579 5.8967 6.77714 5.83634 6.82935C5.77597 6.88157 5.72956 6.9435 5.70006 7.01119C5.67056 7.07889 5.65862 7.15087 5.665 7.22256L6.1875 13.5451C6.1875 13.9429 6.38065 14.3244 6.72447 14.6057C7.06829 14.887 7.5346 15.0451 8.02083 15.0451H13.9792C14.4654 15.0451 14.9317 14.887 15.2755 14.6057C15.6193 14.3244 15.8125 13.9429 15.8125 13.5451L16.335 7.22256C16.3414 7.15087 16.3294 7.07889 16.2999 7.01119C16.2704 6.9435 16.224 6.88157 16.1637 6.82935C16.1033 6.77714 16.0303 6.73579 15.9493 6.70793C15.8683 6.68008 15.7812 6.66633 15.6933 6.66756H6.30667ZM10.3125 12.7951C10.3125 12.9442 10.2401 13.0873 10.1111 13.1928C9.9822 13.2983 9.80734 13.3576 9.625 13.3576C9.44266 13.3576 9.2678 13.2983 9.13886 13.1928C9.00993 13.0873 8.9375 12.9442 8.9375 12.7951V9.42006C8.9375 9.27087 9.00993 9.1278 9.13886 9.02231C9.2678 8.91682 9.44266 8.85756 9.625 8.85756C9.80734 8.85756 9.9822 8.91682 10.1111 9.02231C10.2401 9.1278 10.3125 9.27087 10.3125 9.42006V12.7951ZM13.0625 12.7951C13.0625 12.9442 12.9901 13.0873 12.8611 13.1928C12.7322 13.2983 12.5573 13.3576 12.375 13.3576C12.1927 13.3576 12.0178 13.2983 11.8889 13.1928C11.7599 13.0873 11.6875 12.9442 11.6875 12.7951V9.42006C11.6875 9.27087 11.7599 9.1278 11.8889 9.02231C12.0178 8.91682 12.1927 8.85756 12.375 8.85756C12.5573 8.85756 12.7322 8.91682 12.8611 9.02231C12.9901 9.1278 13.0625 9.27087 13.0625 9.42006V12.7951Z" fill="#FC2828"/>
<path d="M17.4166 5.76746H4.58325C4.40092 5.76746 4.22605 5.70819 4.09712 5.6027C3.96818 5.49721 3.89575 5.35414 3.89575 5.20496C3.89575 5.05577 3.96818 4.9127 4.09712 4.80721C4.22605 4.70172 4.40092 4.64246 4.58325 4.64246H17.4166C17.5989 4.64246 17.7738 4.70172 17.9027 4.80721C18.0317 4.9127 18.1041 5.05577 18.1041 5.20496C18.1041 5.35414 18.0317 5.49721 17.9027 5.6027C17.7738 5.70819 17.5989 5.76746 17.4166 5.76746Z" fill="#FC2828"/>
<path d="M13.2916 5.20496V3.70496C13.2916 3.50604 13.195 3.31528 13.0231 3.17463C12.8512 3.03397 12.618 2.95496 12.3749 2.95496H9.62492C9.3818 2.95496 9.14865 3.03397 8.97674 3.17463C8.80483 3.31528 8.70825 3.50604 8.70825 3.70496V5.20496" fill="#FC2828"/>
</svg>
