<svg width="20" height="20" viewBox="0 0 20 20" fill="none" xmlns="http://www.w3.org/2000/svg">
<path d="M10 0.25C8.07164 0.25 6.18657 0.821828 4.58319 1.89317C2.97982 2.96452 1.73013 4.48726 0.992179 6.26884C0.254224 8.05042 0.061142 10.0108 0.437348 11.9021C0.813554 13.7934 1.74215 15.5307 3.10571 16.8943C4.46928 18.2579 6.20656 19.1865 8.09787 19.5627C9.98919 19.9389 11.9496 19.7458 13.7312 19.0078C15.5127 18.2699 17.0355 17.0202 18.1068 15.4168C19.1782 13.8134 19.75 11.9284 19.75 10C19.7474 7.41495 18.7193 4.93654 16.8914 3.10863C15.0635 1.28073 12.5851 0.252647 10 0.25ZM16 15.67C15.3026 14.7367 14.3972 13.979 13.3556 13.457C12.314 12.9351 11.165 12.6633 10 12.6633C8.83496 12.6633 7.68599 12.9351 6.64441 13.457C5.60283 13.979 4.69737 14.7367 4 15.67C2.89405 14.4981 2.15548 13.028 1.8755 11.4411C1.59551 9.85426 1.78636 8.22015 2.42448 6.74052C3.0626 5.26089 4.12006 4.00053 5.4663 3.11502C6.81255 2.22951 8.38864 1.75762 10 1.75762C11.6114 1.75762 13.1875 2.22951 14.5337 3.11502C15.88 4.00053 16.9374 5.26089 17.5755 6.74052C18.2136 8.22015 18.4045 9.85426 18.1245 11.4411C17.8445 13.028 17.106 14.4981 16 15.67Z" fill="#4779CC"/>
</svg>
